<svg id="Capa_1" enable-background="new 0 0 512 512" height="512" viewBox="0 0 512 512" width="512" xmlns="http://www.w3.org/2000/svg"><g><g><path d="m391.377 302.797c0-14.29-2.85-27.924-8.001-40.375v66.879c0 61.874-50.339 112.213-112.213 112.213h-30.326c-61.874 0-112.213-50.339-112.213-112.213v-66.879c-5.151 12.45-8.001 26.085-8.001 40.375v168.821c35.384 23.847 79.913 40.382 135.377 40.382 55.463 0 99.993-16.535 135.377-40.382z"/><path d="m222.443 360.435c-24.499 0-46.83-9.443-63.557-24.874 3.212 42.416 38.727 75.953 81.95 75.953h30.326c43.224 0 78.738-33.537 81.95-75.953-16.727 15.432-39.058 24.874-63.557 24.874z"/><path d="m510.047 293.679-134.454-236.406c-23.872-34.238-68.49-57.273-119.593-57.273-51.103 0-95.72 23.035-119.593 57.273l-134.454 236.406c-2.085 3.666-2.522 8.026-1.207 12.029 6.92 21.077 32.75 89.808 89.878 142.199v-145.11c0-74.963 60.987-135.95 135.95-135.95h58.854c74.963 0 135.95 60.987 135.95 135.95v145.109c57.127-52.391 82.958-121.122 89.877-142.199 1.314-4.002.877-8.362-1.208-12.028z"/></g><g><path d="m285.427 196.847h-58.854c-25.842 0-49.541 9.315-67.949 24.744v45.024c0 35.19 28.629 63.82 63.819 63.82h67.113c35.19 0 63.819-28.629 63.819-63.82v-45.024c-18.408-15.429-42.106-24.744-67.948-24.744z"/></g></g></svg>